<svg version="1.1" viewBox="0.0 0.0 960.0 720.0" fill="none" stroke="none" stroke-linecap="square" stroke-miterlimit="10" xmlns:xlink="http://www.w3.org/1999/xlink" xmlns="http://www.w3.org/2000/svg"><clipPath id="p.0"><path d="m0 0l960.0 0l0 720.0l-960.0 0l0 -720.0z" clip-rule="nonzero"/></clipPath><g clip-path="url(#p.0)"><path fill="#fafafa" fill-opacity="0.0" d="m0 0l960.0 0l0 720.0l-960.0 0z" fill-rule="evenodd"/><path fill="#666666" d="m840.0 60.0l60.0 -60.0l60.0 60.0l-60.0 60.0z" fill-rule="evenodd"/><path fill="#666666" d="m840.0 180.0l60.0 -60.0l60.0 60.0l-60.0 60.0z" fill-rule="evenodd"/><path fill="#666666" d="m840.0 300.0l60.0 -60.0l60.0 60.0l-60.0 60.0z" fill-rule="evenodd"/><path fill="#666666" d="m840.0 420.0l60.0 -60.0l60.0 60.0l-60.0 60.0z" fill-rule="evenodd"/><path fill="#666666" d="m840.0 540.0l60.0 -60.0l60.0 60.0l-60.0 60.0z" fill-rule="evenodd"/><path fill="#666666" d="m840.0 660.0l60.0 -60.0l60.0 60.0l-60.0 60.0z" fill-rule="evenodd"/><path fill="#666666" d="m720.0 60.0l60.0 -60.0l60.0 60.0l-60.0 60.0z" fill-rule="evenodd"/><path fill="#666666" d="m720.0 180.0l60.0 -60.0l60.0 60.0l-60.0 60.0z" fill-rule="evenodd"/><path fill="#666666" d="m720.0 300.0l60.0 -60.0l60.0 60.0l-60.0 60.0z" fill-rule="evenodd"/><path fill="#666666" d="m720.0 420.0l60.0 -60.0l60.0 60.0l-60.0 60.0z" fill-rule="evenodd"/><path fill="#666666" d="m720.0 540.0l60.0 -60.0l60.0 60.0l-60.0 60.0z" fill-rule="evenodd"/><path fill="#666666" d="m720.0 660.0l60.0 -60.0l60.0 60.0l-60.0 60.0z" fill-rule="evenodd"/><path fill="#666666" d="m600.0 60.0l60.0 -60.0l60.0 60.0l-60.0 60.0z" fill-rule="evenodd"/><path fill="#666666" d="m600.0 180.0l60.0 -60.0l60.0 60.0l-60.0 60.0z" fill-rule="evenodd"/><path fill="#666666" d="m600.0 300.0l60.0 -60.0l60.0 60.0l-60.0 60.0z" fill-rule="evenodd"/><path fill="#666666" d="m600.0 420.0l60.0 -60.0l60.0 60.0l-60.0 60.0z" fill-rule="evenodd"/><path fill="#666666" d="m600.0 540.0l60.0 -60.0l60.0 60.0l-60.0 60.0z" fill-rule="evenodd"/><path fill="#666666" d="m600.0 660.0l60.0 -60.0l60.0 60.0l-60.0 60.0z" fill-rule="evenodd"/><path fill="#666666" d="m480.0 60.0l60.0 -60.0l60.0 60.0l-60.0 60.0z" fill-rule="evenodd"/><path fill="#666666" d="m480.0 180.0l60.0 -60.0l60.0 60.0l-60.0 60.0z" fill-rule="evenodd"/><path fill="#666666" d="m480.0 300.0l60.0 -60.0l60.0 60.0l-60.0 60.0z" fill-rule="evenodd"/><path fill="#666666" d="m480.0 420.0l60.0 -60.0l60.0 60.0l-60.0 60.0z" fill-rule="evenodd"/><path fill="#666666" d="m480.0 540.0l60.0 -60.0l60.0 60.0l-60.0 60.0z" fill-rule="evenodd"/><path fill="#666666" d="m480.0 660.0l60.0 -60.0l60.0 60.0l-60.0 60.0z" fill-rule="evenodd"/><path fill="#666666" d="m360.0 60.0l60.0 -60.0l60.0 60.0l-60.0 60.0z" fill-rule="evenodd"/><path fill="#666666" d="m360.0 180.0l60.0 -60.0l60.0 60.0l-60.0 60.0z" fill-rule="evenodd"/><path fill="#666666" d="m360.0 300.0l60.0 -60.0l60.0 60.0l-60.0 60.0z" fill-rule="evenodd"/><path fill="#666666" d="m360.0 420.0l60.0 -60.0l60.0 60.0l-60.0 60.0z" fill-rule="evenodd"/><path fill="#666666" d="m240.0 60.0l60.0 -60.0l60.0 60.0l-60.0 60.0z" fill-rule="evenodd"/><path fill="#666666" d="m240.0 180.0l60.0 -60.0l60.0 60.0l-60.0 60.0z" fill-rule="evenodd"/><path fill="#666666" d="m240.0 300.0l60.0 -60.0l60.0 60.0l-60.0 60.0z" fill-rule="evenodd"/><path fill="#666666" d="m240.0 420.0l60.0 -60.0l60.0 60.0l-60.0 60.0z" fill-rule="evenodd"/><path fill="#666666" d="m120.0 60.0l60.0 -60.0l60.0 60.0l-60.0 60.0z" fill-rule="evenodd"/><path fill="#666666" d="m120.0 180.0l60.0 -60.0l60.0 60.0l-60.0 60.0z" fill-rule="evenodd"/><path fill="#666666" d="m0 60.0l60.0 -60.0l60.0 60.0l-60.0 60.0z" fill-rule="evenodd"/></g></svg>